<svg width="80" height="80" viewBox="0 0 80 80" fill="none" xmlns="http://www.w3.org/2000/svg">
<path fill-rule="evenodd" clip-rule="evenodd" d="M46.2708 55.3397C54.0653 54.4192 62.3555 51.5852 62.3555 38.1222C62.3555 34.2956 61.008 31.1772 58.8133 28.7677C59.1673 27.8473 60.3 24.3748 58.3861 19.5572C58.3861 19.5572 55.5519 18.6356 48.8925 23.0992C46.0583 22.3206 42.9409 21.8237 40.0359 21.8237C37.0589 21.8237 33.9405 22.3206 31.177 23.0992C24.4455 18.6356 21.6114 19.5572 21.6114 19.5572C19.6988 24.3748 20.8328 27.8473 21.1867 28.7677C18.9897 31.177 17.6434 34.2956 17.6434 38.1222C17.6434 51.5852 25.9336 54.4192 33.7281 55.3397C32.7369 56.1916 31.8155 57.8198 31.4614 60.0877C29.4767 60.9373 24.3039 62.5678 21.1867 57.1827C21.1867 57.1827 19.3437 53.853 15.8723 53.6406C15.8723 53.6406 12.3998 53.5698 15.5891 55.7644C15.5891 55.7644 17.9266 56.8288 19.4864 60.8664C19.4864 60.8664 21.6114 67.5991 31.3894 65.4727V71.495C31.3894 72.4178 30.6816 73.4797 28.9105 73.1966C15.0217 68.5902 5.03125 55.4103 5.03125 39.9641C5.03125 20.6192 20.69 4.96062 40.0359 4.96062C59.3089 4.96062 75.0395 20.6194 74.9687 39.9641C74.9687 55.4103 64.9772 68.5194 51.0894 73.1966C49.3172 73.5506 48.6092 72.4887 48.6092 71.495V61.7891C48.6094 58.5277 47.545 56.4039 46.2708 55.3397ZM80 40.0359C80 17.9266 62.0723 0 40.0359 0C17.9266 0 0 17.9266 0 40.0359C0 62.0723 17.9266 80 40.0359 80C62.0723 80 80 62.0723 80 40.0359Z" fill="#0D2636"/>
</svg>
