<svg width="136" height="151" viewBox="0 0 136 151" fill="none" xmlns="http://www.w3.org/2000/svg">
<path d="M113.33 54.0626C113.33 82.5559 90.3916 105.625 62.1316 105.625C33.8716 105.625 10.9335 82.5559 10.9335 54.0626C10.9335 25.5694 33.8716 2.5 62.1316 2.5C90.3916 2.5 113.33 25.5694 113.33 54.0626Z" fill="white" stroke="#00B0FF" stroke-width="5"/>
<path d="M87.9328 68.9429C86.7072 65.3296 83.8506 63.4984 81.093 61.7278C78.6932 60.186 76.4272 58.7291 74.9453 56.1134C70.8603 48.868 68.6166 44.496 61.9244 44.496C55.2321 44.496 52.9814 48.8695 48.8867 56.112C47.4034 58.7334 45.1262 60.1932 42.7237 61.7378C39.966 63.51 37.1151 65.3368 35.8852 68.9429C35.4066 70.2433 35.1657 71.6242 35.1749 73.0155C35.1749 78.8803 39.6945 83.6525 44.7014 83.6525C49.7084 83.6525 56.3046 81.0426 61.9383 81.0426C67.572 81.0426 74.0762 83.6525 79.1459 83.6525C84.2155 83.6525 88.6571 78.8803 88.6571 73.0155C88.661 71.6234 88.4155 70.2426 87.9328 68.9429V68.9429Z" fill="#00B0FF"/>
<path d="M36.0373 58.2898C40.325 58.2898 43.8008 53.7078 43.8008 48.0557C43.8008 42.4035 40.325 37.8216 36.0373 37.8216C31.7496 37.8216 28.2737 42.4035 28.2737 48.0557C28.2737 53.7078 31.7496 58.2898 36.0373 58.2898Z" fill="#00B0FF"/>
<path d="M51.7801 44.496C56.1869 44.496 59.7594 39.914 59.7594 34.2619C59.7594 28.6098 56.1869 24.0278 51.7801 24.0278C47.3733 24.0278 43.8009 28.6098 43.8009 34.2619C43.8009 39.914 47.3733 44.496 51.7801 44.496Z" fill="#174F68"/>
<path d="M72.0517 44.496C76.4586 44.496 80.031 39.914 80.031 34.2619C80.031 28.6098 76.4586 24.0278 72.0517 24.0278C67.6449 24.0278 64.0725 28.6098 64.0725 34.2619C64.0725 39.914 67.6449 44.496 72.0517 44.496Z" fill="#00B0FF"/>
<path d="M87.7945 58.2898C92.0822 58.2898 95.5581 53.7078 95.5581 48.0557C95.5581 42.4035 92.0822 37.8216 87.7945 37.8216C83.5068 37.8216 80.0309 42.4035 80.0309 48.0557C80.0309 53.7078 83.5068 58.2898 87.7945 58.2898Z" fill="#174F68"/>
<path d="M10.1641 121.078C11.1641 121.062 11.9844 121.242 12.625 121.617C13.2812 121.992 13.8125 122.438 14.2188 122.953C14.625 123.469 14.9375 123.992 15.1562 124.523C15.375 125.039 15.5469 125.445 15.6719 125.742C15.7031 125.82 15.7656 125.922 15.8594 126.047C15.9375 126.156 16.0469 126.289 16.1875 126.445C16.3438 126.586 16.5391 126.75 16.7734 126.938C16.2891 126.953 15.8594 126.969 15.4844 126.984C15.1094 126.984 14.7891 126.992 14.5234 127.008C14.2266 127.023 13.9609 127.039 13.7266 127.055C13.4922 127.07 13.2031 127.094 12.8594 127.125C12.5469 127.156 12.1641 127.188 11.7109 127.219C11.2578 127.25 10.7031 127.297 10.0469 127.359C10.4375 126.891 10.7422 126.477 10.9609 126.117C11.1953 125.742 11.3672 125.414 11.4766 125.133C11.6016 124.836 11.6719 124.578 11.6875 124.359C11.7188 124.141 11.7109 123.953 11.6641 123.797C11.5703 123.438 11.3281 123.18 10.9375 123.023C9.8125 122.711 8.82812 122.961 7.98438 123.773C7.15625 124.57 6.5625 125.883 6.20312 127.711C6.03125 128.617 5.86719 129.562 5.71094 130.547C5.57031 131.516 5.51562 132.406 5.54688 133.219C5.57812 134.016 5.73438 134.664 6.01562 135.164C6.29688 135.664 6.78125 135.898 7.46875 135.867C8.14062 135.836 8.71094 135.727 9.17969 135.539C9.64844 135.336 10.0234 135.102 10.3047 134.836C10.5859 134.555 10.7812 134.258 10.8906 133.945C11.0156 133.617 11.0625 133.312 11.0312 133.031C10.9688 132.812 10.8047 132.578 10.5391 132.328C10.3047 132.109 9.95312 131.867 9.48438 131.602C9.01562 131.32 8.34375 131.031 7.46875 130.734C8.29688 130.688 8.97656 130.656 9.50781 130.641C10.0547 130.609 10.4844 130.578 10.7969 130.547C11.1719 130.516 11.4609 130.492 11.6641 130.477C11.8516 130.461 12.125 130.445 12.4844 130.43C12.7969 130.414 13.1953 130.406 13.6797 130.406C14.1797 130.406 14.8047 130.398 15.5547 130.383C15.2734 130.664 15.0547 130.922 14.8984 131.156C14.8203 131.281 14.75 131.391 14.6875 131.484C14.625 131.641 14.6016 131.961 14.6172 132.445C14.6172 132.852 14.6484 133.453 14.7109 134.25C14.7734 135.031 14.8906 136.102 15.0625 137.461L11.9453 137.883L12.0859 134.719C11.7266 135.578 11.2734 136.219 10.7266 136.641C10.1953 137.062 9.6875 137.359 9.20312 137.531C8.625 137.734 8.02344 137.828 7.39844 137.812C6.58594 137.734 5.77344 137.547 4.96094 137.25C4.14844 136.953 3.42969 136.5 2.80469 135.891C2.17969 135.266 1.69531 134.461 1.35156 133.477C1.02344 132.492 0.921875 131.273 1.04688 129.82C1.1875 128.367 1.53125 127.102 2.07812 126.023C2.64062 124.93 3.33594 124.023 4.16406 123.305C4.99219 122.586 5.92188 122.047 6.95312 121.688C8 121.312 9.07031 121.109 10.1641 121.078ZM18.5312 128.508C18.6094 128.414 18.6562 128.242 18.6719 127.992C18.7031 127.727 18.7656 127.43 18.8594 127.102C18.9688 126.773 19.1484 126.43 19.3984 126.07C19.6484 125.711 20.0547 125.375 20.6172 125.062C21.1641 124.75 21.6953 124.562 22.2109 124.5C22.7266 124.438 23.2188 124.461 23.6875 124.57C24.1562 124.68 24.5938 124.852 25 125.086C25.4219 125.32 25.8047 125.578 26.1484 125.859C26.3828 126.047 26.5703 126.32 26.7109 126.68C26.8516 127.023 26.9609 127.414 27.0391 127.852C27.1172 128.289 27.1719 128.75 27.2031 129.234C27.25 129.703 27.2812 130.164 27.2969 130.617C27.3125 131.055 27.3203 131.461 27.3203 131.836C27.3359 132.195 27.3672 132.492 27.4141 132.727C27.4766 133.07 27.5859 133.367 27.7422 133.617C27.8984 133.852 28.0703 134.055 28.2578 134.227C28.4453 134.383 28.6328 134.508 28.8203 134.602C29.0078 134.695 29.1719 134.766 29.3125 134.812C29.4062 134.859 29.4922 134.891 29.5703 134.906C29.7266 134.969 29.8359 134.969 29.8984 134.906C29.8047 135.125 29.7188 135.312 29.6406 135.469C29.5625 135.625 29.5 135.758 29.4531 135.867C29.3906 135.992 29.3359 136.094 29.2891 136.172C29.2422 136.266 29.1875 136.352 29.125 136.43C29.0781 136.508 29.0156 136.594 28.9375 136.688C28.8594 136.781 28.7812 136.883 28.7031 136.992C28.5 136.914 28.3047 136.82 28.1172 136.711C27.9453 136.602 27.7891 136.5 27.6484 136.406C27.4766 136.297 27.3203 136.188 27.1797 136.078C27.0391 135.969 26.9062 135.844 26.7812 135.703C26.6719 135.578 26.5547 135.445 26.4297 135.305C26.3203 135.164 26.2266 135.008 26.1484 134.836C26.0547 135.039 25.8281 135.328 25.4688 135.703C25.125 136.078 24.6719 136.422 24.1094 136.734C23.5469 137.031 22.8906 137.242 22.1406 137.367C21.4062 137.492 20.5938 137.406 19.7031 137.109C19.3125 136.984 18.9453 136.805 18.6016 136.57C18.2578 136.32 17.9609 136.023 17.7109 135.68C17.4766 135.336 17.3047 134.945 17.1953 134.508C17.1016 134.055 17.1094 133.555 17.2188 133.008C17.3281 132.461 17.5234 132 17.8047 131.625C18.0859 131.25 18.4219 130.945 18.8125 130.711C19.2031 130.477 19.6406 130.297 20.125 130.172C20.6094 130.047 21.1094 129.961 21.625 129.914C22.0312 129.898 22.4375 129.922 22.8438 129.984C23.1875 130.047 23.5469 130.164 23.9219 130.336C24.2969 130.492 24.6172 130.734 24.8828 131.062C24.8672 130.234 24.8359 129.578 24.7891 129.094C24.7578 128.594 24.7266 128.211 24.6953 127.945C24.6328 127.633 24.5781 127.414 24.5312 127.289C24.4531 127.18 24.3672 127.055 24.2734 126.914C24.1953 126.773 24.0938 126.648 23.9688 126.539C23.8438 126.414 23.6875 126.312 23.5 126.234C23.3125 126.156 23.0938 126.125 22.8438 126.141C22.5781 126.156 22.3672 126.227 22.2109 126.352C22.0547 126.477 21.9297 126.625 21.8359 126.797C21.7578 126.953 21.7109 127.125 21.6953 127.312C21.6797 127.5 21.6875 127.664 21.7188 127.805C21.75 127.898 21.7969 128 21.8594 128.109C21.9219 128.203 22.0078 128.305 22.1172 128.414C22.2266 128.523 22.375 128.617 22.5625 128.695C22.2031 128.742 21.8828 128.781 21.6016 128.812C21.3203 128.828 21.0781 128.852 20.875 128.883C20.6406 128.914 20.4375 128.938 20.2656 128.953C20.0938 128.969 19.8906 129 19.6562 129.047C19.4531 129.078 19.2031 129.117 18.9062 129.164C18.6094 129.211 18.2656 129.273 17.875 129.352C17.9688 129.242 18.0547 129.141 18.1328 129.047C18.2109 128.938 18.2812 128.844 18.3438 128.766C18.4062 128.672 18.4688 128.586 18.5312 128.508ZM22.0469 131.297C21.7656 131.312 21.4844 131.383 21.2031 131.508C20.9219 131.617 20.6719 131.781 20.4531 132C20.2344 132.203 20.0469 132.445 19.8906 132.727C19.75 132.992 19.6797 133.289 19.6797 133.617C19.6797 133.945 19.7578 134.234 19.9141 134.484C20.0859 134.719 20.3047 134.914 20.5703 135.07C20.8516 135.227 21.1484 135.32 21.4609 135.352C21.7891 135.383 22.1094 135.352 22.4219 135.258C22.7188 135.148 23 134.977 23.2656 134.742C23.5312 134.492 23.7578 134.227 23.9453 133.945C24.1328 133.648 24.2656 133.359 24.3438 133.078C24.4219 132.781 24.4297 132.539 24.3672 132.352C24.2422 131.945 23.9609 131.664 23.5234 131.508C23.0859 131.336 22.5938 131.266 22.0469 131.297ZM29.3828 123.234C29.8516 123.281 30.2422 123.32 30.5547 123.352C30.8828 123.383 31.1484 123.406 31.3516 123.422C31.5859 123.438 31.7734 123.445 31.9141 123.445C32.0547 123.461 32.2422 123.461 32.4766 123.445C32.6797 123.43 32.9453 123.414 33.2734 123.398C33.6016 123.367 34.0156 123.32 34.5156 123.258C34.4062 123.414 34.3203 123.555 34.2578 123.68C34.1953 123.789 34.1406 123.891 34.0938 123.984L33.9531 124.266C33.9219 124.359 33.8906 124.453 33.8594 124.547C33.8281 124.625 33.7969 124.719 33.7656 124.828C33.75 124.938 33.7344 125.055 33.7188 125.18H37.3281L37 127.078L33.6953 126.891C33.6172 127.688 33.5625 128.305 33.5312 128.742C33.5 129.18 33.4688 129.5 33.4375 129.703L33.3906 130.125C33.3438 130.719 33.2969 131.367 33.25 132.07C33.2031 132.758 33.1875 133.398 33.2031 133.992C33.2188 134.586 33.2734 135.086 33.3672 135.492C33.4609 135.883 33.625 136.078 33.8594 136.078C34.0938 136.078 34.3125 136.016 34.5156 135.891C34.7188 135.766 34.8906 135.617 35.0312 135.445C35.1875 135.273 35.3047 135.102 35.3828 134.93C35.4609 134.742 35.5 134.602 35.5 134.508C35.5 134.414 35.4766 134.305 35.4297 134.18C35.3516 133.945 35.2109 133.648 35.0078 133.289C35.4609 133.398 35.8594 133.508 36.2031 133.617C36.375 133.68 36.5312 133.742 36.6719 133.805C36.8281 133.867 37.0078 133.938 37.2109 134.016C37.3828 134.094 37.6016 134.188 37.8672 134.297C38.1328 134.406 38.4453 134.539 38.8047 134.695C38.4609 134.758 38.2109 134.859 38.0547 135C37.9609 135.062 37.8906 135.133 37.8438 135.211C37.7344 135.383 37.6094 135.617 37.4688 135.914C37.3281 136.195 37.1172 136.477 36.8359 136.758C36.5547 137.039 36.1719 137.289 35.6875 137.508C35.2188 137.727 34.5859 137.852 33.7891 137.883C32.9609 137.914 32.3281 137.773 31.8906 137.461C31.4688 137.148 31.1562 136.789 30.9531 136.383C30.7656 135.961 30.6562 135.547 30.625 135.141C30.5938 134.734 30.5703 134.461 30.5547 134.32C30.5391 134.18 30.5391 133.828 30.5547 133.266C30.5703 132.703 30.5938 132.086 30.625 131.414C30.6562 130.727 30.6875 130.07 30.7188 129.445C30.75 128.805 30.7656 128.336 30.7656 128.039C30.7656 127.883 30.7734 127.719 30.7891 127.547C30.7891 127.406 30.7891 127.258 30.7891 127.102C30.8047 126.93 30.8125 126.766 30.8125 126.609L27.4141 126.586L27.2734 125.25L30.6953 125.344C30.6641 125.172 30.625 125.016 30.5781 124.875C30.5469 124.719 30.5156 124.594 30.4844 124.5C30.4375 124.391 30.3906 124.297 30.3438 124.219C30.2812 124.141 30.2109 124.055 30.1328 123.961C30.0547 123.883 29.9531 123.781 29.8281 123.656C29.7031 123.531 29.5547 123.391 29.3828 123.234ZM37.8438 127.523L42.1562 127.57C41.9062 128.523 41.7188 129.336 41.5938 130.008C41.4844 130.68 41.4141 131.242 41.3828 131.695C41.3203 132.211 41.3047 132.648 41.3359 133.008C41.3828 133.336 41.4609 133.688 41.5703 134.062C41.6641 134.375 41.8047 134.734 41.9922 135.141C42.1797 135.547 42.4297 135.953 42.7422 136.359C42.5547 136.297 42.3516 136.25 42.1328 136.219C41.9141 136.188 41.7109 136.164 41.5234 136.148C41.3047 136.133 41.0859 136.133 40.8672 136.148C40.6484 136.164 40.4062 136.188 40.1406 136.219C39.9219 136.25 39.6562 136.289 39.3438 136.336C39.0312 136.383 38.7031 136.445 38.3594 136.523C38.5938 135.82 38.7734 135.211 38.8984 134.695C39.0391 134.18 39.1406 133.75 39.2031 133.406C39.2656 133 39.3047 132.672 39.3203 132.422C39.3203 132.109 39.3203 131.758 39.3203 131.367C39.3203 130.961 39.3203 130.57 39.3203 130.195C39.3203 129.82 39.3125 129.492 39.2969 129.211C39.2812 128.914 39.25 128.727 39.2031 128.648L38.9688 128.414C38.875 128.336 38.7344 128.227 38.5469 128.086C38.375 127.93 38.1406 127.742 37.8438 127.523ZM39.5078 123.914C39.8359 123.742 40.1641 123.695 40.4922 123.773C40.8359 123.852 41.1016 124 41.2891 124.219C41.4766 124.438 41.5391 124.695 41.4766 124.992C41.4297 125.289 41.1797 125.578 40.7266 125.859C40.2734 126.125 39.875 126.219 39.5312 126.141C39.1875 126.062 38.9453 125.898 38.8047 125.648C38.6641 125.398 38.6406 125.109 38.7344 124.781C38.8281 124.438 39.0859 124.148 39.5078 123.914ZM43.3047 123.234C43.7734 123.281 44.1641 123.32 44.4766 123.352C44.8047 123.383 45.0703 123.406 45.2734 123.422C45.5078 123.438 45.6953 123.445 45.8359 123.445C45.9766 123.461 46.1641 123.461 46.3984 123.445C46.6016 123.43 46.8672 123.414 47.1953 123.398C47.5234 123.367 47.9375 123.32 48.4375 123.258C48.3281 123.414 48.2422 123.555 48.1797 123.68C48.1172 123.789 48.0625 123.891 48.0156 123.984L47.875 124.266C47.8438 124.359 47.8125 124.453 47.7812 124.547C47.75 124.625 47.7188 124.719 47.6875 124.828C47.6719 124.938 47.6562 125.055 47.6406 125.18H51.25L50.9219 127.078L47.6172 126.891C47.5391 127.688 47.4844 128.305 47.4531 128.742C47.4219 129.18 47.3906 129.5 47.3594 129.703L47.3125 130.125C47.2656 130.719 47.2188 131.367 47.1719 132.07C47.125 132.758 47.1094 133.398 47.125 133.992C47.1406 134.586 47.1953 135.086 47.2891 135.492C47.3828 135.883 47.5469 136.078 47.7812 136.078C48.0156 136.078 48.2344 136.016 48.4375 135.891C48.6406 135.766 48.8125 135.617 48.9531 135.445C49.1094 135.273 49.2266 135.102 49.3047 134.93C49.3828 134.742 49.4219 134.602 49.4219 134.508C49.4219 134.414 49.3984 134.305 49.3516 134.18C49.2734 133.945 49.1328 133.648 48.9297 133.289C49.3828 133.398 49.7812 133.508 50.125 133.617C50.2969 133.68 50.4531 133.742 50.5938 133.805C50.75 133.867 50.9297 133.938 51.1328 134.016C51.3047 134.094 51.5234 134.188 51.7891 134.297C52.0547 134.406 52.3672 134.539 52.7266 134.695C52.3828 134.758 52.1328 134.859 51.9766 135C51.8828 135.062 51.8125 135.133 51.7656 135.211C51.6562 135.383 51.5312 135.617 51.3906 135.914C51.25 136.195 51.0391 136.477 50.7578 136.758C50.4766 137.039 50.0938 137.289 49.6094 137.508C49.1406 137.727 48.5078 137.852 47.7109 137.883C46.8828 137.914 46.25 137.773 45.8125 137.461C45.3906 137.148 45.0781 136.789 44.875 136.383C44.6875 135.961 44.5781 135.547 44.5469 135.141C44.5156 134.734 44.4922 134.461 44.4766 134.32C44.4609 134.18 44.4609 133.828 44.4766 133.266C44.4922 132.703 44.5156 132.086 44.5469 131.414C44.5781 130.727 44.6094 130.07 44.6406 129.445C44.6719 128.805 44.6875 128.336 44.6875 128.039C44.6875 127.883 44.6953 127.719 44.7109 127.547C44.7109 127.406 44.7109 127.258 44.7109 127.102C44.7266 126.93 44.7344 126.766 44.7344 126.609L41.3359 126.586L41.1953 125.25L44.6172 125.344C44.5859 125.172 44.5469 125.016 44.5 124.875C44.4688 124.719 44.4375 124.594 44.4062 124.5C44.3594 124.391 44.3125 124.297 44.2656 124.219C44.2031 124.141 44.1328 124.055 44.0547 123.961C43.9766 123.883 43.875 123.781 43.75 123.656C43.625 123.531 43.4766 123.391 43.3047 123.234ZM58.0469 127.5C58.4531 127.5 58.875 127.578 59.3125 127.734C59.75 127.875 60.1719 128.062 60.5781 128.297C60.9844 128.516 61.3516 128.758 61.6797 129.023C62.0234 129.273 62.3047 129.516 62.5234 129.75C62.9141 130.172 63.1797 130.742 63.3203 131.461C63.4766 132.164 63.5078 132.891 63.4141 133.641C63.3203 134.375 63.1016 135.07 62.7578 135.727C62.4141 136.383 61.9375 136.867 61.3281 137.18C60.8906 137.398 60.4609 137.57 60.0391 137.695C59.6172 137.82 59.2109 137.914 58.8203 137.977C58.4297 138.039 58.0625 138.07 57.7188 138.07C57.375 138.07 57.0781 138.062 56.8281 138.047C56.3594 138.016 55.8672 137.852 55.3516 137.555C54.8516 137.258 54.375 136.891 53.9219 136.453C53.4844 136.016 53.1094 135.539 52.7969 135.023C52.4844 134.492 52.2969 133.992 52.2344 133.523C52.1406 132.883 52.125 132.211 52.1875 131.508C52.25 130.805 52.4766 130.156 52.8672 129.562C53.2734 128.969 53.8828 128.477 54.6953 128.086C55.5234 127.695 56.6406 127.5 58.0469 127.5ZM57.2734 136.594C57.4453 136.625 57.6797 136.586 57.9766 136.477C58.2734 136.352 58.5625 136.156 58.8438 135.891C59.1406 135.625 59.3984 135.289 59.6172 134.883C59.8516 134.461 59.9922 133.953 60.0391 133.359C60.0859 132.781 60.0859 132.25 60.0391 131.766C60.0078 131.281 59.9375 130.859 59.8281 130.5C59.7188 130.125 59.5938 129.82 59.4531 129.586C59.3125 129.352 59.1641 129.188 59.0078 129.094C58.7422 128.953 58.4219 128.844 58.0469 128.766C57.6719 128.672 57.3516 128.688 57.0859 128.812C56.9609 128.875 56.8047 129.008 56.6172 129.211C56.4297 129.414 56.2422 129.672 56.0547 129.984C55.8672 130.281 55.6953 130.625 55.5391 131.016C55.3984 131.406 55.2969 131.812 55.2344 132.234C55.1719 132.656 55.1562 133.109 55.1875 133.594C55.2344 134.078 55.3359 134.539 55.4922 134.977C55.6484 135.398 55.8672 135.766 56.1484 136.078C56.4453 136.375 56.8203 136.547 57.2734 136.594ZM63.8359 121.242C64.3359 121.367 64.8125 121.461 65.2656 121.523C65.7188 121.586 66.1172 121.633 66.4609 121.664C66.8672 121.711 67.2422 121.727 67.5859 121.711C68.0234 121.711 68.5703 121.672 69.2266 121.594C69.8984 121.516 70.5859 121.445 71.2891 121.383C71.9922 121.305 72.6641 121.258 73.3047 121.242C73.9609 121.211 74.4922 121.25 74.8984 121.359C75.3047 121.453 75.7188 121.602 76.1406 121.805C76.5781 121.992 76.9766 122.234 77.3359 122.531C77.6953 122.812 77.9922 123.148 78.2266 123.539C78.4609 123.914 78.5938 124.344 78.625 124.828C78.6094 125.438 78.4688 126.008 78.2031 126.539C77.9844 126.992 77.6172 127.461 77.1016 127.945C76.5859 128.414 75.8438 128.773 74.875 129.023C75.3594 129.086 75.7734 129.195 76.1172 129.352C76.4766 129.492 76.7812 129.664 77.0312 129.867C77.2969 130.055 77.5078 130.266 77.6641 130.5C77.8359 130.734 77.9688 130.969 78.0625 131.203C78.2969 131.75 78.4062 132.359 78.3906 133.031C78.2969 133.906 78.1172 134.602 77.8516 135.117C77.6016 135.633 77.3125 136.031 76.9844 136.312C76.6562 136.594 76.3203 136.789 75.9766 136.898C75.6328 137.008 75.3203 137.094 75.0391 137.156C74.7578 137.219 74.4141 137.25 74.0078 137.25C73.6016 137.25 73.1641 137.242 72.6953 137.227C72.2422 137.195 71.7734 137.172 71.2891 137.156C70.8047 137.125 70.3438 137.125 69.9062 137.156C69.5469 137.188 69.1094 137.219 68.5938 137.25C68.1562 137.281 67.6094 137.32 66.9531 137.367C66.2969 137.398 65.5312 137.438 64.6562 137.484C64.8281 137.359 64.9688 137.219 65.0781 137.062C65.2031 136.891 65.3047 136.742 65.3828 136.617C65.4609 136.461 65.5312 136.312 65.5938 136.172C65.6406 136.047 65.6797 135.703 65.7109 135.141C65.7422 134.578 65.7656 133.906 65.7812 133.125C65.7969 132.328 65.8047 131.477 65.8047 130.57C65.8203 129.648 65.8125 128.766 65.7812 127.922C65.7656 127.062 65.7344 126.305 65.6875 125.648C65.6562 124.977 65.6094 124.492 65.5469 124.195C65.4531 123.867 65.3281 123.531 65.1719 123.188C65.0469 122.891 64.8672 122.57 64.6328 122.227C64.4141 121.883 64.1484 121.555 63.8359 121.242ZM68.7812 123.633C68.7812 123.695 68.7891 123.906 68.8047 124.266C68.8203 124.578 68.8359 125.062 68.8516 125.719C68.8828 126.359 68.9219 127.273 68.9688 128.461C69.3594 128.633 69.7422 128.727 70.1172 128.742C70.4922 128.742 70.8281 128.727 71.125 128.695C71.4688 128.648 71.7969 128.57 72.1094 128.461C72.5312 128.289 72.8594 128.008 73.0938 127.617C73.3438 127.227 73.5078 126.82 73.5859 126.398C73.6797 125.961 73.7031 125.555 73.6562 125.18C73.6094 124.789 73.5078 124.508 73.3516 124.336C73.0547 124.07 72.6875 123.852 72.25 123.68C71.875 123.539 71.3984 123.445 70.8203 123.398C70.2578 123.336 69.5781 123.414 68.7812 123.633ZM68.6641 134.742C69.2422 135.039 69.75 135.234 70.1875 135.328C70.625 135.422 70.9922 135.469 71.2891 135.469C71.6328 135.469 71.9297 135.422 72.1797 135.328C72.4766 135.188 72.7656 135 73.0469 134.766C73.3438 134.516 73.5625 134.227 73.7031 133.898C73.8594 133.555 73.9219 133.18 73.8906 132.773C73.8594 132.352 73.6797 131.891 73.3516 131.391C73.0547 131.031 72.6953 130.75 72.2734 130.547C71.8984 130.375 71.4219 130.266 70.8438 130.219C70.2812 130.172 69.5859 130.305 68.7578 130.617L68.6641 134.742ZM85.9844 127.5C86.3906 127.5 86.8125 127.578 87.25 127.734C87.6875 127.875 88.1094 128.062 88.5156 128.297C88.9219 128.516 89.2891 128.758 89.6172 129.023C89.9609 129.273 90.2422 129.516 90.4609 129.75C90.8516 130.172 91.1172 130.742 91.2578 131.461C91.4141 132.164 91.4453 132.891 91.3516 133.641C91.2578 134.375 91.0391 135.07 90.6953 135.727C90.3516 136.383 89.875 136.867 89.2656 137.18C88.8281 137.398 88.3984 137.57 87.9766 137.695C87.5547 137.82 87.1484 137.914 86.7578 137.977C86.3672 138.039 86 138.07 85.6562 138.07C85.3125 138.07 85.0156 138.062 84.7656 138.047C84.2969 138.016 83.8047 137.852 83.2891 137.555C82.7891 137.258 82.3125 136.891 81.8594 136.453C81.4219 136.016 81.0469 135.539 80.7344 135.023C80.4219 134.492 80.2344 133.992 80.1719 133.523C80.0781 132.883 80.0625 132.211 80.125 131.508C80.1875 130.805 80.4141 130.156 80.8047 129.562C81.2109 128.969 81.8203 128.477 82.6328 128.086C83.4609 127.695 84.5781 127.5 85.9844 127.5ZM85.2109 136.594C85.3828 136.625 85.6172 136.586 85.9141 136.477C86.2109 136.352 86.5 136.156 86.7812 135.891C87.0781 135.625 87.3359 135.289 87.5547 134.883C87.7891 134.461 87.9297 133.953 87.9766 133.359C88.0234 132.781 88.0234 132.25 87.9766 131.766C87.9453 131.281 87.875 130.859 87.7656 130.5C87.6562 130.125 87.5312 129.82 87.3906 129.586C87.25 129.352 87.1016 129.188 86.9453 129.094C86.6797 128.953 86.3594 128.844 85.9844 128.766C85.6094 128.672 85.2891 128.688 85.0234 128.812C84.8984 128.875 84.7422 129.008 84.5547 129.211C84.3672 129.414 84.1797 129.672 83.9922 129.984C83.8047 130.281 83.6328 130.625 83.4766 131.016C83.3359 131.406 83.2344 131.812 83.1719 132.234C83.1094 132.656 83.0938 133.109 83.125 133.594C83.1719 134.078 83.2734 134.539 83.4297 134.977C83.5859 135.398 83.8047 135.766 84.0859 136.078C84.3828 136.375 84.7578 136.547 85.2109 136.594ZM98.7578 127.5C99.1641 127.5 99.5859 127.578 100.023 127.734C100.461 127.875 100.883 128.062 101.289 128.297C101.695 128.516 102.062 128.758 102.391 129.023C102.734 129.273 103.016 129.516 103.234 129.75C103.625 130.172 103.891 130.742 104.031 131.461C104.188 132.164 104.219 132.891 104.125 133.641C104.031 134.375 103.812 135.07 103.469 135.727C103.125 136.383 102.648 136.867 102.039 137.18C101.602 137.398 101.172 137.57 100.75 137.695C100.328 137.82 99.9219 137.914 99.5312 137.977C99.1406 138.039 98.7734 138.07 98.4297 138.07C98.0859 138.07 97.7891 138.062 97.5391 138.047C97.0703 138.016 96.5781 137.852 96.0625 137.555C95.5625 137.258 95.0859 136.891 94.6328 136.453C94.1953 136.016 93.8203 135.539 93.5078 135.023C93.1953 134.492 93.0078 133.992 92.9453 133.523C92.8516 132.883 92.8359 132.211 92.8984 131.508C92.9609 130.805 93.1875 130.156 93.5781 129.562C93.9844 128.969 94.5938 128.477 95.4062 128.086C96.2344 127.695 97.3516 127.5 98.7578 127.5ZM97.9844 136.594C98.1562 136.625 98.3906 136.586 98.6875 136.477C98.9844 136.352 99.2734 136.156 99.5547 135.891C99.8516 135.625 100.109 135.289 100.328 134.883C100.562 134.461 100.703 133.953 100.75 133.359C100.797 132.781 100.797 132.25 100.75 131.766C100.719 131.281 100.648 130.859 100.539 130.5C100.43 130.125 100.305 129.82 100.164 129.586C100.023 129.352 99.875 129.188 99.7188 129.094C99.4531 128.953 99.1328 128.844 98.7578 128.766C98.3828 128.672 98.0625 128.688 97.7969 128.812C97.6719 128.875 97.5156 129.008 97.3281 129.211C97.1406 129.414 96.9531 129.672 96.7656 129.984C96.5781 130.281 96.4062 130.625 96.25 131.016C96.1094 131.406 96.0078 131.812 95.9453 132.234C95.8828 132.656 95.8672 133.109 95.8984 133.594C95.9453 134.078 96.0469 134.539 96.2031 134.977C96.3594 135.398 96.5781 135.766 96.8594 136.078C97.1562 136.375 97.5312 136.547 97.9844 136.594ZM105.016 121.102C105.188 121.18 105.391 121.234 105.625 121.266C105.875 121.297 106.109 121.312 106.328 121.312C106.594 121.312 106.867 121.305 107.148 121.289C107.43 121.273 107.773 121.242 108.18 121.195C108.508 121.164 108.914 121.125 109.398 121.078C109.883 121.031 110.422 120.969 111.016 120.891C110.797 121 110.609 121.117 110.453 121.242C110.297 121.367 110.164 121.492 110.055 121.617C109.93 121.758 109.828 121.898 109.75 122.039C109.641 122.227 109.492 122.555 109.305 123.023C109.133 123.477 108.953 123.984 108.766 124.547C108.594 125.109 108.438 125.68 108.297 126.258C108.172 126.836 108.102 127.328 108.086 127.734C108.07 128.078 108.055 128.469 108.039 128.906C108.023 129.281 108.008 129.742 107.992 130.289C107.977 130.836 107.961 131.461 107.945 132.164C109.07 131.352 109.938 130.703 110.547 130.219C111.156 129.719 111.602 129.336 111.883 129.07C112.211 128.773 112.406 128.562 112.469 128.438C112.453 128.344 112.414 128.242 112.352 128.133C112.273 128.039 112.164 127.93 112.023 127.805C111.883 127.68 111.672 127.539 111.391 127.383C111.797 127.43 112.148 127.461 112.445 127.477C112.758 127.492 113.023 127.508 113.242 127.523C113.492 127.539 113.711 127.539 113.898 127.523C114.102 127.523 114.352 127.516 114.648 127.5C115.164 127.484 115.961 127.461 117.039 127.43C115.992 127.977 115.164 128.445 114.555 128.836C114.211 129.055 113.906 129.258 113.641 129.445C113.375 129.648 113.102 129.859 112.82 130.078C112.57 130.266 112.281 130.484 111.953 130.734C111.641 130.984 111.328 131.25 111.016 131.531C111.562 132.422 112.039 133.156 112.445 133.734C112.867 134.312 113.219 134.781 113.5 135.141C113.828 135.562 114.117 135.898 114.367 136.148C114.617 136.383 114.945 136.648 115.352 136.945C115.695 137.211 116.141 137.523 116.688 137.883C117.25 138.227 117.93 138.625 118.727 139.078C118.32 139 117.93 138.945 117.555 138.914C117.18 138.898 116.859 138.898 116.594 138.914C116.266 138.93 115.969 138.961 115.703 139.008C115.422 139.07 115.109 139.148 114.766 139.242C114.469 139.32 114.117 139.422 113.711 139.547C113.32 139.688 112.891 139.867 112.422 140.086C112.719 139.867 112.938 139.656 113.078 139.453C113.234 139.266 113.344 139.109 113.406 138.984C113.469 138.828 113.492 138.695 113.477 138.586C113.398 138.43 113.219 138.109 112.938 137.625C112.672 137.219 112.281 136.625 111.766 135.844C111.25 135.062 110.516 134 109.562 132.656C109.516 132.672 109.438 132.719 109.328 132.797C109.234 132.875 109.094 132.984 108.906 133.125C108.719 133.25 108.469 133.438 108.156 133.688L108.789 137.789C108.648 137.852 108.492 137.906 108.32 137.953C108.164 138 108.016 138.039 107.875 138.07C107.703 138.117 107.531 138.148 107.359 138.164C107.188 138.18 106.984 138.211 106.75 138.258C106.547 138.289 106.305 138.328 106.023 138.375C105.742 138.438 105.422 138.508 105.062 138.586C105.266 138.445 105.43 138.281 105.555 138.094C105.68 137.922 105.781 137.758 105.859 137.602C105.938 137.43 106.008 137.25 106.07 137.062C106.102 136.906 106.133 136.5 106.164 135.844C106.211 135.188 106.25 134.406 106.281 133.5C106.312 132.578 106.336 131.594 106.352 130.547C106.383 129.5 106.398 128.516 106.398 127.594C106.398 126.656 106.391 125.844 106.375 125.156C106.359 124.453 106.328 124 106.281 123.797C106.203 123.547 106.109 123.281 106 123C105.906 122.75 105.773 122.469 105.602 122.156C105.445 121.828 105.25 121.477 105.016 121.102Z" fill="black"/>
</svg>
