<svg width="315" height="337" viewBox="0 0 315 337" fill="none" xmlns="http://www.w3.org/2000/svg">
<path d="M279.5 121.5C279.5 187.165 224.937 240.5 157.5 240.5C90.0634 240.5 35.5 187.165 35.5 121.5C35.5 55.8352 90.0634 2.5 157.5 2.5C224.937 2.5 279.5 55.8352 279.5 121.5Z" fill="#00B0FF" stroke="white" stroke-width="5"/>
<path d="M217.321 154.942C214.479 146.821 207.856 142.706 201.462 138.726C195.899 135.261 190.645 131.987 187.209 126.109C177.738 109.826 172.536 100 157.02 100C141.504 100 136.285 109.829 126.792 126.106C123.353 131.997 118.073 135.278 112.503 138.749C106.109 142.732 99.4988 146.837 96.6475 154.942C95.5377 157.864 94.9793 160.968 95.0006 164.094C95.0006 177.275 105.479 188 117.088 188C128.697 188 143.99 182.134 157.052 182.134C170.114 182.134 185.194 188 196.948 188C208.702 188 219 177.275 219 164.094C219.009 160.966 218.44 157.863 217.321 154.942V154.942Z" fill="white"/>
<path d="M97 131C106.941 131 115 120.703 115 108C115 95.2975 106.941 85 97 85C87.0589 85 79 95.2975 79 108C79 120.703 87.0589 131 97 131Z" fill="white"/>
<path d="M133.5 100C143.717 100 152 89.7025 152 77C152 64.2975 143.717 54 133.5 54C123.283 54 115 64.2975 115 77C115 89.7025 123.283 100 133.5 100Z" fill="#174F68"/>
<path d="M180.5 100C190.717 100 199 89.7025 199 77C199 64.2975 190.717 54 180.5 54C170.283 54 162 64.2975 162 77C162 89.7025 170.283 100 180.5 100Z" fill="white"/>
<path d="M217 131C226.941 131 235 120.703 235 108C235 95.2975 226.941 85 217 85C207.059 85 199 95.2975 199 108C199 120.703 207.059 131 217 131Z" fill="#174F68"/>
<path d="M25.4375 273.875C28.1042 273.833 30.2917 274.312 32 275.312C33.75 276.312 35.1667 277.5 36.25 278.875C37.3333 280.25 38.1667 281.646 38.75 283.062C39.3333 284.438 39.7917 285.521 40.125 286.312C40.2083 286.521 40.375 286.792 40.625 287.125C40.8333 287.417 41.125 287.771 41.5 288.188C41.9167 288.562 42.4375 289 43.0625 289.5C41.7708 289.542 40.625 289.583 39.625 289.625C38.625 289.625 37.7708 289.646 37.0625 289.688C36.2708 289.729 35.5625 289.771 34.9375 289.812C34.3125 289.854 33.5417 289.917 32.625 290C31.7917 290.083 30.7708 290.167 29.5625 290.25C28.3542 290.333 26.875 290.458 25.125 290.625C26.1667 289.375 26.9792 288.271 27.5625 287.312C28.1875 286.312 28.6458 285.438 28.9375 284.688C29.2708 283.896 29.4583 283.208 29.5 282.625C29.5833 282.042 29.5625 281.542 29.4375 281.125C29.1875 280.167 28.5417 279.479 27.5 279.062C24.5 278.229 21.875 278.896 19.625 281.062C17.4167 283.188 15.8333 286.688 14.875 291.562C14.4167 293.979 13.9792 296.5 13.5625 299.125C13.1875 301.708 13.0417 304.083 13.125 306.25C13.2083 308.375 13.625 310.104 14.375 311.438C15.125 312.771 16.4167 313.396 18.25 313.312C20.0417 313.229 21.5625 312.938 22.8125 312.438C24.0625 311.896 25.0625 311.271 25.8125 310.562C26.5625 309.812 27.0833 309.021 27.375 308.188C27.7083 307.312 27.8333 306.5 27.75 305.75C27.5833 305.167 27.1458 304.542 26.4375 303.875C25.8125 303.292 24.875 302.646 23.625 301.938C22.375 301.188 20.5833 300.417 18.25 299.625C20.4583 299.5 22.2708 299.417 23.6875 299.375C25.1458 299.292 26.2917 299.208 27.125 299.125C28.125 299.042 28.8958 298.979 29.4375 298.938C29.9375 298.896 30.6667 298.854 31.625 298.812C32.4583 298.771 33.5208 298.75 34.8125 298.75C36.1458 298.75 37.8125 298.729 39.8125 298.688C39.0625 299.438 38.4792 300.125 38.0625 300.75C37.8542 301.083 37.6667 301.375 37.5 301.625C37.3333 302.042 37.2708 302.896 37.3125 304.188C37.3125 305.271 37.3958 306.875 37.5625 309C37.7292 311.083 38.0417 313.938 38.5 317.562L30.1875 318.688L30.5625 310.25C29.6042 312.542 28.3958 314.25 26.9375 315.375C25.5208 316.5 24.1667 317.292 22.875 317.75C21.3333 318.292 19.7292 318.542 18.0625 318.5C15.8958 318.292 13.7292 317.792 11.5625 317C9.39583 316.208 7.47917 315 5.8125 313.375C4.14583 311.708 2.85417 309.562 1.9375 306.938C1.0625 304.312 0.791667 301.062 1.125 297.188C1.5 293.312 2.41667 289.938 3.875 287.062C5.375 284.146 7.22917 281.729 9.4375 279.812C11.6458 277.896 14.125 276.458 16.875 275.5C19.6667 274.5 22.5208 273.958 25.4375 273.875ZM47.75 293.688C47.9583 293.438 48.0833 292.979 48.125 292.312C48.2083 291.604 48.375 290.812 48.625 289.938C48.9167 289.062 49.3958 288.146 50.0625 287.188C50.7292 286.229 51.8125 285.333 53.3125 284.5C54.7708 283.667 56.1875 283.167 57.5625 283C58.9375 282.833 60.25 282.896 61.5 283.188C62.75 283.479 63.9167 283.938 65 284.562C66.125 285.188 67.1458 285.875 68.0625 286.625C68.6875 287.125 69.1875 287.854 69.5625 288.812C69.9375 289.729 70.2292 290.771 70.4375 291.938C70.6458 293.104 70.7917 294.333 70.875 295.625C71 296.875 71.0833 298.104 71.125 299.312C71.1667 300.479 71.1875 301.562 71.1875 302.562C71.2292 303.521 71.3125 304.312 71.4375 304.938C71.6042 305.854 71.8958 306.646 72.3125 307.312C72.7292 307.938 73.1875 308.479 73.6875 308.938C74.1875 309.354 74.6875 309.688 75.1875 309.938C75.6875 310.188 76.125 310.375 76.5 310.5C76.75 310.625 76.9792 310.708 77.1875 310.75C77.6042 310.917 77.8958 310.917 78.0625 310.75C77.8125 311.333 77.5833 311.833 77.375 312.25C77.1667 312.667 77 313.021 76.875 313.312C76.7083 313.646 76.5625 313.917 76.4375 314.125C76.3125 314.375 76.1667 314.604 76 314.812C75.875 315.021 75.7083 315.25 75.5 315.5C75.2917 315.75 75.0833 316.021 74.875 316.312C74.3333 316.104 73.8125 315.854 73.3125 315.562C72.8542 315.271 72.4375 315 72.0625 314.75C71.6042 314.458 71.1875 314.167 70.8125 313.875C70.4375 313.583 70.0833 313.25 69.75 312.875C69.4583 312.542 69.1458 312.188 68.8125 311.812C68.5208 311.438 68.2708 311.021 68.0625 310.562C67.8125 311.104 67.2083 311.875 66.25 312.875C65.3333 313.875 64.125 314.792 62.625 315.625C61.125 316.417 59.375 316.979 57.375 317.312C55.4167 317.646 53.25 317.417 50.875 316.625C49.8333 316.292 48.8542 315.812 47.9375 315.188C47.0208 314.521 46.2292 313.729 45.5625 312.812C44.9375 311.896 44.4792 310.854 44.1875 309.688C43.9375 308.479 43.9583 307.146 44.25 305.688C44.5417 304.229 45.0625 303 45.8125 302C46.5625 301 47.4583 300.188 48.5 299.562C49.5417 298.938 50.7083 298.458 52 298.125C53.2917 297.792 54.625 297.562 56 297.438C57.0833 297.396 58.1667 297.458 59.25 297.625C60.1667 297.792 61.125 298.104 62.125 298.562C63.125 298.979 63.9792 299.625 64.6875 300.5C64.6458 298.292 64.5625 296.542 64.4375 295.25C64.3542 293.917 64.2708 292.896 64.1875 292.188C64.0208 291.354 63.875 290.771 63.75 290.438C63.5417 290.146 63.3125 289.812 63.0625 289.438C62.8542 289.062 62.5833 288.729 62.25 288.438C61.9167 288.104 61.5 287.833 61 287.625C60.5 287.417 59.9167 287.333 59.25 287.375C58.5417 287.417 57.9792 287.604 57.5625 287.938C57.1458 288.271 56.8125 288.667 56.5625 289.125C56.3542 289.542 56.2292 290 56.1875 290.5C56.1458 291 56.1667 291.438 56.25 291.812C56.3333 292.062 56.4583 292.333 56.625 292.625C56.7917 292.875 57.0208 293.146 57.3125 293.438C57.6042 293.729 58 293.979 58.5 294.188C57.5417 294.312 56.6875 294.417 55.9375 294.5C55.1875 294.542 54.5417 294.604 54 294.688C53.375 294.771 52.8333 294.833 52.375 294.875C51.9167 294.917 51.375 295 50.75 295.125C50.2083 295.208 49.5417 295.312 48.75 295.438C47.9583 295.562 47.0417 295.729 46 295.938C46.25 295.646 46.4792 295.375 46.6875 295.125C46.8958 294.833 47.0833 294.583 47.25 294.375C47.4167 294.125 47.5833 293.896 47.75 293.688ZM57.125 301.125C56.375 301.167 55.625 301.354 54.875 301.688C54.125 301.979 53.4583 302.417 52.875 303C52.2917 303.542 51.7917 304.188 51.375 304.938C51 305.646 50.8125 306.438 50.8125 307.312C50.8125 308.188 51.0208 308.958 51.4375 309.625C51.8958 310.25 52.4792 310.771 53.1875 311.188C53.9375 311.604 54.7292 311.854 55.5625 311.938C56.4375 312.021 57.2917 311.938 58.125 311.688C58.9167 311.396 59.6667 310.938 60.375 310.312C61.0833 309.646 61.6875 308.938 62.1875 308.188C62.6875 307.396 63.0417 306.625 63.25 305.875C63.4583 305.083 63.4792 304.438 63.3125 303.938C62.9792 302.854 62.2292 302.104 61.0625 301.688C59.8958 301.229 58.5833 301.042 57.125 301.125ZM76.6875 279.625C77.9375 279.75 78.9792 279.854 79.8125 279.938C80.6875 280.021 81.3958 280.083 81.9375 280.125C82.5625 280.167 83.0625 280.188 83.4375 280.188C83.8125 280.229 84.3125 280.229 84.9375 280.188C85.4792 280.146 86.1875 280.104 87.0625 280.062C87.9375 279.979 89.0417 279.854 90.375 279.688C90.0833 280.104 89.8542 280.479 89.6875 280.812C89.5208 281.104 89.375 281.375 89.25 281.625L88.875 282.375C88.7917 282.625 88.7083 282.875 88.625 283.125C88.5417 283.333 88.4583 283.583 88.375 283.875C88.3333 284.167 88.2917 284.479 88.25 284.812H97.875L97 289.875L88.1875 289.375C87.9792 291.5 87.8333 293.146 87.75 294.312C87.6667 295.479 87.5833 296.333 87.5 296.875L87.375 298C87.25 299.583 87.125 301.312 87 303.188C86.875 305.021 86.8333 306.729 86.875 308.312C86.9167 309.896 87.0625 311.229 87.3125 312.312C87.5625 313.354 88 313.875 88.625 313.875C89.25 313.875 89.8333 313.708 90.375 313.375C90.9167 313.042 91.375 312.646 91.75 312.188C92.1667 311.729 92.4792 311.271 92.6875 310.812C92.8958 310.312 93 309.938 93 309.688C93 309.438 92.9375 309.146 92.8125 308.812C92.6042 308.188 92.2292 307.396 91.6875 306.438C92.8958 306.729 93.9583 307.021 94.875 307.312C95.3333 307.479 95.75 307.646 96.125 307.812C96.5417 307.979 97.0208 308.167 97.5625 308.375C98.0208 308.583 98.6042 308.833 99.3125 309.125C100.021 309.417 100.854 309.771 101.812 310.188C100.896 310.354 100.229 310.625 99.8125 311C99.5625 311.167 99.375 311.354 99.25 311.562C98.9583 312.021 98.625 312.646 98.25 313.438C97.875 314.188 97.3125 314.938 96.5625 315.688C95.8125 316.438 94.7917 317.104 93.5 317.688C92.25 318.271 90.5625 318.604 88.4375 318.688C86.2292 318.771 84.5417 318.396 83.375 317.562C82.25 316.729 81.4167 315.771 80.875 314.688C80.375 313.562 80.0833 312.458 80 311.375C79.9167 310.292 79.8542 309.562 79.8125 309.188C79.7708 308.812 79.7708 307.875 79.8125 306.375C79.8542 304.875 79.9167 303.229 80 301.438C80.0833 299.604 80.1667 297.854 80.25 296.188C80.3333 294.479 80.375 293.229 80.375 292.438C80.375 292.021 80.3958 291.583 80.4375 291.125C80.4375 290.75 80.4375 290.354 80.4375 289.938C80.4792 289.479 80.5 289.042 80.5 288.625L71.4375 288.562L71.0625 285L80.1875 285.25C80.1042 284.792 80 284.375 79.875 284C79.7917 283.583 79.7083 283.25 79.625 283C79.5 282.708 79.375 282.458 79.25 282.25C79.0833 282.042 78.8958 281.812 78.6875 281.562C78.4792 281.354 78.2083 281.083 77.875 280.75C77.5417 280.417 77.1458 280.042 76.6875 279.625ZM99.25 291.062L110.75 291.188C110.083 293.729 109.583 295.896 109.25 297.688C108.958 299.479 108.771 300.979 108.688 302.188C108.521 303.562 108.479 304.729 108.562 305.688C108.688 306.562 108.896 307.5 109.188 308.5C109.438 309.333 109.812 310.292 110.312 311.375C110.812 312.458 111.479 313.542 112.312 314.625C111.812 314.458 111.271 314.333 110.688 314.25C110.104 314.167 109.562 314.104 109.062 314.062C108.479 314.021 107.896 314.021 107.312 314.062C106.729 314.104 106.083 314.167 105.375 314.25C104.792 314.333 104.083 314.438 103.25 314.562C102.417 314.688 101.542 314.854 100.625 315.062C101.25 313.188 101.729 311.562 102.062 310.188C102.438 308.812 102.708 307.667 102.875 306.75C103.042 305.667 103.146 304.792 103.188 304.125C103.188 303.292 103.188 302.354 103.188 301.312C103.188 300.229 103.188 299.188 103.188 298.188C103.188 297.188 103.167 296.312 103.125 295.562C103.083 294.771 103 294.271 102.875 294.062L102.25 293.438C102 293.229 101.625 292.938 101.125 292.562C100.667 292.146 100.042 291.646 99.25 291.062ZM103.688 281.438C104.562 280.979 105.438 280.854 106.312 281.062C107.229 281.271 107.938 281.667 108.438 282.25C108.938 282.833 109.104 283.521 108.938 284.312C108.812 285.104 108.146 285.875 106.938 286.625C105.729 287.333 104.667 287.583 103.75 287.375C102.833 287.167 102.188 286.729 101.812 286.062C101.438 285.396 101.375 284.625 101.625 283.75C101.875 282.833 102.562 282.062 103.688 281.438ZM113.812 279.625C115.062 279.75 116.104 279.854 116.938 279.938C117.812 280.021 118.521 280.083 119.062 280.125C119.688 280.167 120.188 280.188 120.562 280.188C120.938 280.229 121.438 280.229 122.062 280.188C122.604 280.146 123.312 280.104 124.188 280.062C125.062 279.979 126.167 279.854 127.5 279.688C127.208 280.104 126.979 280.479 126.812 280.812C126.646 281.104 126.5 281.375 126.375 281.625L126 282.375C125.917 282.625 125.833 282.875 125.75 283.125C125.667 283.333 125.583 283.583 125.5 283.875C125.458 284.167 125.417 284.479 125.375 284.812H135L134.125 289.875L125.312 289.375C125.104 291.5 124.958 293.146 124.875 294.312C124.792 295.479 124.708 296.333 124.625 296.875L124.5 298C124.375 299.583 124.25 301.312 124.125 303.188C124 305.021 123.958 306.729 124 308.312C124.042 309.896 124.188 311.229 124.438 312.312C124.688 313.354 125.125 313.875 125.75 313.875C126.375 313.875 126.958 313.708 127.5 313.375C128.042 313.042 128.5 312.646 128.875 312.188C129.292 311.729 129.604 311.271 129.812 310.812C130.021 310.312 130.125 309.938 130.125 309.688C130.125 309.438 130.062 309.146 129.938 308.812C129.729 308.188 129.354 307.396 128.812 306.438C130.021 306.729 131.083 307.021 132 307.312C132.458 307.479 132.875 307.646 133.25 307.812C133.667 307.979 134.146 308.167 134.688 308.375C135.146 308.583 135.729 308.833 136.438 309.125C137.146 309.417 137.979 309.771 138.938 310.188C138.021 310.354 137.354 310.625 136.938 311C136.688 311.167 136.5 311.354 136.375 311.562C136.083 312.021 135.75 312.646 135.375 313.438C135 314.188 134.438 314.938 133.688 315.688C132.938 316.438 131.917 317.104 130.625 317.688C129.375 318.271 127.688 318.604 125.562 318.688C123.354 318.771 121.667 318.396 120.5 317.562C119.375 316.729 118.542 315.771 118 314.688C117.5 313.562 117.208 312.458 117.125 311.375C117.042 310.292 116.979 309.562 116.938 309.188C116.896 308.812 116.896 307.875 116.938 306.375C116.979 304.875 117.042 303.229 117.125 301.438C117.208 299.604 117.292 297.854 117.375 296.188C117.458 294.479 117.5 293.229 117.5 292.438C117.5 292.021 117.521 291.583 117.562 291.125C117.562 290.75 117.562 290.354 117.562 289.938C117.604 289.479 117.625 289.042 117.625 288.625L108.562 288.562L108.188 285L117.312 285.25C117.229 284.792 117.125 284.375 117 284C116.917 283.583 116.833 283.25 116.75 283C116.625 282.708 116.5 282.458 116.375 282.25C116.208 282.042 116.021 281.812 115.812 281.562C115.604 281.354 115.333 281.083 115 280.75C114.667 280.417 114.271 280.042 113.812 279.625ZM153.125 291C154.208 291 155.333 291.208 156.5 291.625C157.667 292 158.792 292.5 159.875 293.125C160.958 293.708 161.938 294.354 162.812 295.062C163.729 295.729 164.479 296.375 165.062 297C166.104 298.125 166.812 299.646 167.188 301.562C167.604 303.438 167.688 305.375 167.438 307.375C167.188 309.333 166.604 311.188 165.688 312.938C164.771 314.688 163.5 315.979 161.875 316.812C160.708 317.396 159.562 317.854 158.438 318.188C157.312 318.521 156.229 318.771 155.188 318.938C154.146 319.104 153.167 319.188 152.25 319.188C151.333 319.188 150.542 319.167 149.875 319.125C148.625 319.042 147.312 318.604 145.938 317.812C144.604 317.021 143.333 316.042 142.125 314.875C140.958 313.708 139.958 312.438 139.125 311.062C138.292 309.646 137.792 308.312 137.625 307.062C137.375 305.354 137.333 303.562 137.5 301.688C137.667 299.812 138.271 298.083 139.312 296.5C140.396 294.917 142.021 293.604 144.188 292.562C146.396 291.521 149.375 291 153.125 291ZM151.062 315.25C151.521 315.333 152.146 315.229 152.938 314.938C153.729 314.604 154.5 314.083 155.25 313.375C156.042 312.667 156.729 311.771 157.312 310.688C157.938 309.562 158.312 308.208 158.438 306.625C158.562 305.083 158.562 303.667 158.438 302.375C158.354 301.083 158.167 299.958 157.875 299C157.583 298 157.25 297.188 156.875 296.562C156.5 295.938 156.104 295.5 155.688 295.25C154.979 294.875 154.125 294.583 153.125 294.375C152.125 294.125 151.271 294.167 150.562 294.5C150.229 294.667 149.812 295.021 149.312 295.562C148.812 296.104 148.312 296.792 147.812 297.625C147.312 298.417 146.854 299.333 146.438 300.375C146.062 301.417 145.792 302.5 145.625 303.625C145.458 304.75 145.417 305.958 145.5 307.25C145.625 308.542 145.896 309.771 146.312 310.938C146.729 312.062 147.312 313.042 148.062 313.875C148.854 314.667 149.854 315.125 151.062 315.25ZM168.562 274.312C169.896 274.646 171.167 274.896 172.375 275.062C173.583 275.229 174.646 275.354 175.562 275.438C176.646 275.562 177.646 275.604 178.562 275.562C179.729 275.562 181.188 275.458 182.938 275.25C184.729 275.042 186.562 274.854 188.438 274.688C190.312 274.479 192.104 274.354 193.812 274.312C195.562 274.229 196.979 274.333 198.062 274.625C199.146 274.875 200.25 275.271 201.375 275.812C202.542 276.312 203.604 276.958 204.562 277.75C205.521 278.5 206.312 279.396 206.938 280.438C207.562 281.438 207.917 282.583 208 283.875C207.958 285.5 207.583 287.021 206.875 288.438C206.292 289.646 205.312 290.896 203.938 292.188C202.562 293.438 200.583 294.396 198 295.062C199.292 295.229 200.396 295.521 201.312 295.938C202.271 296.312 203.083 296.771 203.75 297.312C204.458 297.812 205.021 298.375 205.438 299C205.896 299.625 206.25 300.25 206.5 300.875C207.125 302.333 207.417 303.958 207.375 305.75C207.125 308.083 206.646 309.938 205.938 311.312C205.271 312.688 204.5 313.75 203.625 314.5C202.75 315.25 201.854 315.771 200.938 316.062C200.021 316.354 199.188 316.583 198.438 316.75C197.688 316.917 196.771 317 195.688 317C194.604 317 193.438 316.979 192.188 316.938C190.979 316.854 189.729 316.792 188.438 316.75C187.146 316.667 185.917 316.667 184.75 316.75C183.792 316.833 182.625 316.917 181.25 317C180.083 317.083 178.625 317.188 176.875 317.312C175.125 317.396 173.083 317.5 170.75 317.625C171.208 317.292 171.583 316.917 171.875 316.5C172.208 316.042 172.479 315.646 172.688 315.312C172.896 314.896 173.083 314.5 173.25 314.125C173.375 313.792 173.479 312.875 173.562 311.375C173.646 309.875 173.708 308.083 173.75 306C173.792 303.875 173.812 301.604 173.812 299.188C173.854 296.729 173.833 294.375 173.75 292.125C173.708 289.833 173.625 287.812 173.5 286.062C173.417 284.271 173.292 282.979 173.125 282.188C172.875 281.312 172.542 280.417 172.125 279.5C171.792 278.708 171.312 277.854 170.688 276.938C170.104 276.021 169.396 275.146 168.562 274.312ZM181.75 280.688C181.75 280.854 181.771 281.417 181.812 282.375C181.854 283.208 181.896 284.5 181.938 286.25C182.021 287.958 182.125 290.396 182.25 293.562C183.292 294.021 184.312 294.271 185.312 294.312C186.312 294.312 187.208 294.271 188 294.188C188.917 294.062 189.792 293.854 190.625 293.562C191.75 293.104 192.625 292.354 193.25 291.312C193.917 290.271 194.354 289.188 194.562 288.062C194.812 286.896 194.875 285.812 194.75 284.812C194.625 283.771 194.354 283.021 193.938 282.562C193.146 281.854 192.167 281.271 191 280.812C190 280.438 188.729 280.188 187.188 280.062C185.688 279.896 183.875 280.104 181.75 280.688ZM181.438 310.312C182.979 311.104 184.333 311.625 185.5 311.875C186.667 312.125 187.646 312.25 188.438 312.25C189.354 312.25 190.146 312.125 190.812 311.875C191.604 311.5 192.375 311 193.125 310.375C193.917 309.708 194.5 308.938 194.875 308.062C195.292 307.146 195.458 306.146 195.375 305.062C195.292 303.938 194.812 302.708 193.938 301.375C193.146 300.417 192.188 299.667 191.062 299.125C190.062 298.667 188.792 298.375 187.25 298.25C185.75 298.125 183.896 298.479 181.688 299.312L181.438 310.312ZM227.625 291C228.708 291 229.833 291.208 231 291.625C232.167 292 233.292 292.5 234.375 293.125C235.458 293.708 236.438 294.354 237.312 295.062C238.229 295.729 238.979 296.375 239.562 297C240.604 298.125 241.312 299.646 241.688 301.562C242.104 303.438 242.188 305.375 241.938 307.375C241.688 309.333 241.104 311.188 240.188 312.938C239.271 314.688 238 315.979 236.375 316.812C235.208 317.396 234.062 317.854 232.938 318.188C231.812 318.521 230.729 318.771 229.688 318.938C228.646 319.104 227.667 319.188 226.75 319.188C225.833 319.188 225.042 319.167 224.375 319.125C223.125 319.042 221.812 318.604 220.438 317.812C219.104 317.021 217.833 316.042 216.625 314.875C215.458 313.708 214.458 312.438 213.625 311.062C212.792 309.646 212.292 308.312 212.125 307.062C211.875 305.354 211.833 303.562 212 301.688C212.167 299.812 212.771 298.083 213.812 296.5C214.896 294.917 216.521 293.604 218.688 292.562C220.896 291.521 223.875 291 227.625 291ZM225.562 315.25C226.021 315.333 226.646 315.229 227.438 314.938C228.229 314.604 229 314.083 229.75 313.375C230.542 312.667 231.229 311.771 231.812 310.688C232.438 309.562 232.812 308.208 232.938 306.625C233.062 305.083 233.062 303.667 232.938 302.375C232.854 301.083 232.667 299.958 232.375 299C232.083 298 231.75 297.188 231.375 296.562C231 295.938 230.604 295.5 230.188 295.25C229.479 294.875 228.625 294.583 227.625 294.375C226.625 294.125 225.771 294.167 225.062 294.5C224.729 294.667 224.312 295.021 223.812 295.562C223.312 296.104 222.812 296.792 222.312 297.625C221.812 298.417 221.354 299.333 220.938 300.375C220.562 301.417 220.292 302.5 220.125 303.625C219.958 304.75 219.917 305.958 220 307.25C220.125 308.542 220.396 309.771 220.812 310.938C221.229 312.062 221.812 313.042 222.562 313.875C223.354 314.667 224.354 315.125 225.562 315.25ZM261.688 291C262.771 291 263.896 291.208 265.062 291.625C266.229 292 267.354 292.5 268.438 293.125C269.521 293.708 270.5 294.354 271.375 295.062C272.292 295.729 273.042 296.375 273.625 297C274.667 298.125 275.375 299.646 275.75 301.562C276.167 303.438 276.25 305.375 276 307.375C275.75 309.333 275.167 311.188 274.25 312.938C273.333 314.688 272.062 315.979 270.438 316.812C269.271 317.396 268.125 317.854 267 318.188C265.875 318.521 264.792 318.771 263.75 318.938C262.708 319.104 261.729 319.188 260.812 319.188C259.896 319.188 259.104 319.167 258.438 319.125C257.188 319.042 255.875 318.604 254.5 317.812C253.167 317.021 251.896 316.042 250.688 314.875C249.521 313.708 248.521 312.438 247.688 311.062C246.854 309.646 246.354 308.312 246.188 307.062C245.938 305.354 245.896 303.562 246.062 301.688C246.229 299.812 246.833 298.083 247.875 296.5C248.958 294.917 250.583 293.604 252.75 292.562C254.958 291.521 257.938 291 261.688 291ZM259.625 315.25C260.083 315.333 260.708 315.229 261.5 314.938C262.292 314.604 263.062 314.083 263.812 313.375C264.604 312.667 265.292 311.771 265.875 310.688C266.5 309.562 266.875 308.208 267 306.625C267.125 305.083 267.125 303.667 267 302.375C266.917 301.083 266.729 299.958 266.438 299C266.146 298 265.812 297.188 265.438 296.562C265.062 295.938 264.667 295.5 264.25 295.25C263.542 294.875 262.688 294.583 261.688 294.375C260.688 294.125 259.833 294.167 259.125 294.5C258.792 294.667 258.375 295.021 257.875 295.562C257.375 296.104 256.875 296.792 256.375 297.625C255.875 298.417 255.417 299.333 255 300.375C254.625 301.417 254.354 302.5 254.188 303.625C254.021 304.75 253.979 305.958 254.062 307.25C254.188 308.542 254.458 309.771 254.875 310.938C255.292 312.062 255.875 313.042 256.625 313.875C257.417 314.667 258.417 315.125 259.625 315.25ZM278.375 273.938C278.833 274.146 279.375 274.292 280 274.375C280.667 274.458 281.292 274.5 281.875 274.5C282.583 274.5 283.312 274.479 284.062 274.438C284.812 274.396 285.729 274.312 286.812 274.188C287.688 274.104 288.771 274 290.062 273.875C291.354 273.75 292.792 273.583 294.375 273.375C293.792 273.667 293.292 273.979 292.875 274.312C292.458 274.646 292.104 274.979 291.812 275.312C291.479 275.688 291.208 276.062 291 276.438C290.708 276.938 290.312 277.812 289.812 279.062C289.354 280.271 288.875 281.625 288.375 283.125C287.917 284.625 287.5 286.146 287.125 287.688C286.792 289.229 286.604 290.542 286.562 291.625C286.521 292.542 286.479 293.583 286.438 294.75C286.396 295.75 286.354 296.979 286.312 298.438C286.271 299.896 286.229 301.562 286.188 303.438C289.188 301.271 291.5 299.542 293.125 298.25C294.75 296.917 295.938 295.896 296.688 295.188C297.562 294.396 298.083 293.833 298.25 293.5C298.208 293.25 298.104 292.979 297.938 292.688C297.729 292.438 297.438 292.146 297.062 291.812C296.688 291.479 296.125 291.104 295.375 290.688C296.458 290.812 297.396 290.896 298.188 290.938C299.021 290.979 299.729 291.021 300.312 291.062C300.979 291.104 301.562 291.104 302.062 291.062C302.604 291.062 303.271 291.042 304.062 291C305.438 290.958 307.562 290.896 310.438 290.812C307.646 292.271 305.438 293.521 303.812 294.562C302.896 295.146 302.083 295.688 301.375 296.188C300.667 296.729 299.938 297.292 299.188 297.875C298.521 298.375 297.75 298.958 296.875 299.625C296.042 300.292 295.208 301 294.375 301.75C295.833 304.125 297.104 306.083 298.188 307.625C299.312 309.167 300.25 310.417 301 311.375C301.875 312.5 302.646 313.396 303.312 314.062C303.979 314.688 304.854 315.396 305.938 316.188C306.854 316.896 308.042 317.729 309.5 318.688C311 319.604 312.812 320.667 314.938 321.875C313.854 321.667 312.812 321.521 311.812 321.438C310.812 321.396 309.958 321.396 309.25 321.438C308.375 321.479 307.583 321.562 306.875 321.688C306.125 321.854 305.292 322.062 304.375 322.312C303.583 322.521 302.646 322.792 301.562 323.125C300.521 323.5 299.375 323.979 298.125 324.562C298.917 323.979 299.5 323.417 299.875 322.875C300.292 322.375 300.583 321.958 300.75 321.625C300.917 321.208 300.979 320.854 300.938 320.562C300.729 320.146 300.25 319.292 299.5 318C298.792 316.917 297.75 315.333 296.375 313.25C295 311.167 293.042 308.333 290.5 304.75C290.375 304.792 290.167 304.917 289.875 305.125C289.625 305.333 289.25 305.625 288.75 306C288.25 306.333 287.583 306.833 286.75 307.5L288.438 318.438C288.062 318.604 287.646 318.75 287.188 318.875C286.771 319 286.375 319.104 286 319.188C285.542 319.312 285.083 319.396 284.625 319.438C284.167 319.479 283.625 319.562 283 319.688C282.458 319.771 281.812 319.875 281.062 320C280.312 320.167 279.458 320.354 278.5 320.562C279.042 320.188 279.479 319.75 279.812 319.25C280.146 318.792 280.417 318.354 280.625 317.938C280.833 317.479 281.021 317 281.188 316.5C281.271 316.083 281.354 315 281.438 313.25C281.562 311.5 281.667 309.417 281.75 307C281.833 304.542 281.896 301.917 281.938 299.125C282.021 296.333 282.062 293.708 282.062 291.25C282.062 288.75 282.042 286.583 282 284.75C281.958 282.875 281.875 281.667 281.75 281.125C281.542 280.458 281.292 279.75 281 279C280.75 278.333 280.396 277.583 279.938 276.75C279.521 275.875 279 274.938 278.375 273.938Z" fill="black"/>
</svg>
