<svg width="64" height="64" viewBox="0 0 64 64" fill="none" xmlns="http://www.w3.org/2000/svg">
<path d="M0 32C0 38.329 1.87677 44.5159 5.39297 49.7782C8.90918 55.0406 13.9069 59.1421 19.7541 61.5641C25.6014 63.9861 32.0355 64.6199 38.2429 63.3851C44.4503 62.1504 50.1521 59.1027 54.6274 54.6274C59.1027 50.1521 62.1504 44.4503 63.3851 38.2429C64.6199 32.0355 63.9861 25.6014 61.5641 19.7541C59.1421 13.9069 55.0406 8.90918 49.7782 5.39297C44.5159 1.87677 38.329 0 32 0C23.5131 0 15.3737 3.37142 9.37258 9.37258C3.37142 15.3737 0 23.5131 0 32H0Z" fill="#174F68"/>
<path d="M46 42.18V48.09C46 48.3297 45.9055 48.5596 45.737 48.73C45.5685 48.9004 45.3396 48.9974 45.1 49H18C17.7604 48.9974 17.5315 48.9004 17.363 48.73C17.1945 48.5596 17.1 48.3297 17.1 48.09V42.18C17.1 37.41 23.57 33.54 31.55 33.54C39.53 33.54 46 37.41 46 42.18Z" stroke="#00B0FF" stroke-width="2" stroke-miterlimit="10" stroke-linecap="round"/>
<path d="M31.55 27.36C35.0957 27.36 37.97 24.5931 37.97 21.18C37.97 17.7669 35.0957 15 31.55 15C28.0043 15 25.13 17.7669 25.13 21.18C25.13 24.5931 28.0043 27.36 31.55 27.36Z" stroke="#00B0FF" stroke-width="2" stroke-miterlimit="10" stroke-linecap="round"/>
</svg>
